<?xml version="1.0" encoding="UTF-8"?>
<svg width="280" height="560" viewBox="0 0 280 560" fill="none" xmlns="http://www.w3.org/2000/svg">
  <!-- Phone Frame -->
  <rect x="2" y="2" width="276" height="556" rx="32" fill="#1a1a2e" stroke="#333" stroke-width="2"/>

  <!-- Screen -->
  <rect x="12" y="12" width="256" height="536" rx="24" fill="#f5f5f5"/>

  <!-- Status Bar -->
  <rect x="12" y="12" width="256" height="44" rx="24" fill="#ffffff"/>
  <text x="140" y="38" fill="#333" font-family="system-ui" font-size="14" text-anchor="middle" font-weight="500">9:41</text>

  <!-- Profile Header -->
  <rect x="12" y="56" width="256" height="160" fill="#ffffff"/>

  <!-- Profile Avatar -->
  <circle cx="140" cy="108" r="40" fill="#e3f2fd"/>
  <circle cx="140" cy="98" r="16" fill="#1a73e8"/>
  <path d="M140 118 C120 118 108 132 108 148 L172 148 C172 132 160 118 140 118" fill="#1a73e8"/>

  <text x="140" y="180" fill="#333" font-family="system-ui" font-size="20" text-anchor="middle" font-weight="600">John Smith</text>
  <text x="140" y="202" fill="#455a64" font-family="system-ui" font-size="14" text-anchor="middle">john.smith@email.com</text>

  <!-- Stats Cards -->
  <g transform="translate(24, 228)">
    <rect x="0" y="0" width="72" height="64" rx="12" fill="#ffffff"/>
    <text x="36" y="28" fill="#1a73e8" font-family="system-ui" font-size="22" text-anchor="middle" font-weight="700">12</text>
    <text x="36" y="48" fill="#999" font-family="system-ui" font-size="11" text-anchor="middle">Services</text>
  </g>
  <g transform="translate(104, 228)">
    <rect x="0" y="0" width="72" height="64" rx="12" fill="#ffffff"/>
    <text x="36" y="28" fill="#1a73e8" font-family="system-ui" font-size="22" text-anchor="middle" font-weight="700">2</text>
    <text x="36" y="48" fill="#999" font-family="system-ui" font-size="11" text-anchor="middle">Properties</text>
  </g>
  <g transform="translate(184, 228)">
    <rect x="0" y="0" width="72" height="64" rx="12" fill="#ffffff"/>
    <text x="36" y="28" fill="#4caf50" font-family="system-ui" font-size="22" text-anchor="middle" font-weight="700">$89</text>
    <text x="36" y="48" fill="#999" font-family="system-ui" font-size="11" text-anchor="middle">Saved</text>
  </g>

  <!-- Menu Section -->
  <rect x="12" y="308" width="256" height="240" rx="16" fill="#ffffff"/>

  <!-- Menu Items -->
  <g transform="translate(24, 324)">
    <circle cx="20" cy="20" r="20" fill="#e3f2fd"/>
    <path d="M20 10 L12 18 L14 18 L14 26 L26 26 L26 18 L28 18 Z" fill="#1a73e8"/>
    <text x="56" y="24" fill="#333" font-family="system-ui" font-size="15" font-weight="500">My Properties</text>
    <path d="M220 16 L226 20 L220 24" stroke="#ccc" stroke-width="2" stroke-linecap="round" stroke-linejoin="round" fill="none"/>
  </g>

  <line x1="24" y1="368" x2="256" y2="368" stroke="#f0f0f0" stroke-width="1"/>

  <g transform="translate(24, 380)">
    <circle cx="20" cy="20" r="20" fill="#e3f2fd"/>
    <rect x="10" y="12" width="20" height="16" rx="2" stroke="#1a73e8" stroke-width="2" fill="none"/>
    <path d="M10 18 L30 18" stroke="#1a73e8" stroke-width="2"/>
    <circle cx="26" cy="24" r="3" fill="#1a73e8"/>
    <text x="56" y="24" fill="#333" font-family="system-ui" font-size="15" font-weight="500">Payment Methods</text>
    <path d="M220 16 L226 20 L220 24" stroke="#ccc" stroke-width="2" stroke-linecap="round" stroke-linejoin="round" fill="none"/>
  </g>

  <line x1="24" y1="424" x2="256" y2="424" stroke="#f0f0f0" stroke-width="1"/>

  <g transform="translate(24, 436)">
    <circle cx="20" cy="20" r="20" fill="#e3f2fd"/>
    <circle cx="20" cy="14" r="4" stroke="#1a73e8" stroke-width="2" fill="none"/>
    <path d="M12 28 L20 22 L28 28" stroke="#1a73e8" stroke-width="2" stroke-linecap="round" fill="none"/>
    <text x="56" y="24" fill="#333" font-family="system-ui" font-size="15" font-weight="500">Notifications</text>
    <path d="M220 16 L226 20 L220 24" stroke="#ccc" stroke-width="2" stroke-linecap="round" stroke-linejoin="round" fill="none"/>
  </g>

  <line x1="24" y1="480" x2="256" y2="480" stroke="#f0f0f0" stroke-width="1"/>

  <g transform="translate(24, 492)">
    <circle cx="20" cy="20" r="20" fill="#e3f2fd"/>
    <circle cx="20" cy="20" r="8" stroke="#1a73e8" stroke-width="2" fill="none"/>
    <circle cx="20" cy="12" r="3" fill="#1a73e8"/>
    <text x="56" y="24" fill="#333" font-family="system-ui" font-size="15" font-weight="500">Settings</text>
    <path d="M220 16 L226 20 L220 24" stroke="#ccc" stroke-width="2" stroke-linecap="round" stroke-linejoin="round" fill="none"/>
  </g>
</svg>
