<svg width="58" height="30" viewBox="0 0 58 30" fill="none" xmlns="http://www.w3.org/2000/svg">
<g clip-path="url(#clip0_1_2)">
<path d="M57 13H58V11H57C55.5975 11.0017 54.2201 11.3721 53.0059 12.0742C51.7918 12.7763 50.7836 13.7853 50.0825 15H45V14C44.9994 13.4698 44.7885 12.9614 44.4135 12.5865C44.0386 12.2115 43.5302 12.0006 43 12H38.667L33.9229 0.6152C33.847 0.433024 33.7188 0.277396 33.5546 0.167921C33.3903 0.0584459 33.1974 1.97335e-05 33 0H22C21.7348 0 21.4804 0.105356 21.2929 0.292892C21.1054 0.480429 21 0.734784 21 1V2.2577C20.1637 1.67466 19.2102 1.28133 18.2061 1.10521C17.202 0.9291 16.1715 0.974456 15.1868 1.23811C14.202 1.50176 13.2867 1.97735 12.5049 2.63161C11.7231 3.28587 11.0937 4.10302 10.6606 5.0259C10.4443 5.0088 10.2246 5 10 5C8.05313 5.00326 6.17414 5.71574 4.71457 7.00414C3.255 8.29254 2.31485 10.0686 2.07 12H1C0.734784 12 0.48043 12.1054 0.292893 12.2929C0.105357 12.4804 0 12.7348 0 13V25C0 25.2652 0.105357 25.5196 0.292893 25.7071C0.48043 25.8946 0.734784 26 1 26H5.1011C5.33167 27.1291 5.94519 28.1439 6.83788 28.8727C7.73056 29.6015 8.84759 29.9996 10 29.9996C11.1524 29.9996 12.2694 29.6015 13.1621 28.8727C14.0548 28.1439 14.6683 27.1291 14.8989 26H30.1011C30.3317 27.1291 30.9452 28.1439 31.8379 28.8727C32.7306 29.6015 33.8476 29.9996 35 29.9996C36.1524 29.9996 37.2694 29.6015 38.1621 28.8727C39.0548 28.1439 39.6683 27.1291 39.8989 26H43C43.5302 25.9994 44.0386 25.7885 44.4135 25.4135C44.7885 25.0386 44.9994 24.5302 45 24V23H50.0825C50.7836 24.2147 51.7918 25.2237 53.0059 25.9258C54.2201 26.6279 55.5975 26.9983 57 27H58V25H57C55.4087 25 53.8826 24.3679 52.7574 23.2426C51.6321 22.1174 51 20.5913 51 19C51 17.4087 51.6321 15.8826 52.7574 14.7574C53.8826 13.6321 55.4087 13 57 13ZM10 28C9.40666 28 8.82664 27.8241 8.33329 27.4944C7.83994 27.1648 7.45542 26.6962 7.22836 26.148C7.0013 25.5999 6.94189 24.9967 7.05764 24.4147C7.1734 23.8328 7.45912 23.2982 7.87868 22.8787C8.29824 22.4591 8.83279 22.1734 9.41473 22.0576C9.99667 21.9419 10.5999 22.0013 11.1481 22.2284C11.6962 22.4554 12.1648 22.8399 12.4944 23.3333C12.8241 23.8266 13 24.4067 13 25C12.9991 25.7954 12.6828 26.5579 12.1204 27.1204C11.5579 27.6828 10.7954 27.9991 10 28ZM21 24H14.8994C14.6688 22.8708 14.0552 21.8559 13.1625 21.127C12.2697 20.3981 11.1525 19.9999 10 19.9999C8.84747 19.9999 7.73031 20.3981 6.83754 21.127C5.94477 21.8559 5.33119 22.8708 5.1006 24H2V14H21V24ZM21 12H4.0835C4.32171 10.6027 5.04612 9.33457 6.12875 8.41965C7.21138 7.50472 8.58255 7.00189 10 7C10.3732 6.99879 10.7456 7.03311 11.1123 7.1025C11.3507 7.14806 11.5975 7.10537 11.8067 6.98239C12.016 6.85941 12.1733 6.66454 12.2495 6.4341C12.5356 5.56579 13.0544 4.79258 13.7494 4.19862C14.4445 3.60466 15.2891 3.21269 16.1914 3.06537C17.0937 2.91805 18.0191 3.02102 18.8669 3.36308C19.7148 3.70514 20.4525 4.27319 21 5.0054V12ZM35 28C34.4067 28 33.8266 27.8241 33.3333 27.4944C32.8399 27.1648 32.4554 26.6962 32.2284 26.148C32.0013 25.5999 31.9419 24.9967 32.0576 24.4147C32.1734 23.8328 32.4591 23.2982 32.8787 22.8787C33.2982 22.4591 33.8328 22.1734 34.4147 22.0576C34.9967 21.9419 35.5999 22.0013 36.148 22.2284C36.6962 22.4554 37.1648 22.8399 37.4944 23.3333C37.8241 23.8266 38 24.4067 38 25C37.9991 25.7954 37.6828 26.5579 37.1204 27.1204C36.5579 27.6828 35.7954 27.9991 35 28ZM43 24H39.8994C39.6688 22.8708 39.0552 21.8559 38.1625 21.127C37.2697 20.3981 36.1525 19.9999 35 19.9999C33.8475 19.9999 32.7303 20.3981 31.8375 21.127C30.9448 21.8559 30.3312 22.8708 30.1006 24H23V2H32.333L37.0771 13.3848C37.153 13.567 37.2812 13.7226 37.4454 13.8321C37.6097 13.9416 37.8026 14 38 14L43 14.0029V24ZM49.252 21H45V17H49.252C48.916 18.3122 48.916 19.6878 49.252 21ZM30.9189 4.606C30.8419 4.42608 30.7138 4.27273 30.5505 4.165C30.3871 4.05726 30.1957 3.99989 30 4H26C25.7348 4 25.4804 4.10536 25.2929 4.29289C25.1054 4.48043 25 4.73478 25 5V12C25 12.2652 25.1054 12.5196 25.2929 12.7071C25.4804 12.8946 25.7348 13 26 13H33C33.1655 13 33.3283 12.9589 33.474 12.8804C33.6197 12.8019 33.7436 12.6885 33.8347 12.5504C33.9258 12.4122 33.9811 12.2536 33.9958 12.0888C34.0105 11.924 33.9841 11.7581 33.9189 11.606L30.9189 4.606ZM27 11V6H29.3408L31.4834 11H27Z" fill="#1A73E8"/>
</g>
<defs>
<clipPath id="clip0_1_2">
<rect width="58" height="30" fill="white"/>
</clipPath>
</defs>
</svg>
